<svg width="1243" height="755" viewBox="0 0 1243 755" fill="none" xmlns="http://www.w3.org/2000/svg">
<path d="M398.742 626C404.404 632.285 410.901 639.462 417.887 647.137C501.436 623.214 578.035 594.772 625.5 562.5C644.709 576.148 666.403 589.327 689.417 601.874C756.614 536.215 824.206 463.044 850 412.5C934.689 463.23 1012.08 544.201 1058.82 596.991C1116.64 461.764 1199.31 235.585 1242 0.5C1242 190 1247.5 601 1104.74 649C1103.31 649.482 1086.4 628.144 1058.82 596.991C1024.53 677.186 998.983 725.393 995.707 724.5C988.242 722.464 818.166 672.064 689.417 601.874C606.383 683.009 523.953 752.673 521.743 754C518.318 756.055 459.441 692.787 417.887 647.137C220.974 703.521 -14.5461 734.808 1.74263 732C24.9426 728 276.076 659.667 398.742 626Z" fill="url(#paint0_linear_1_112)"/>
<defs>
<linearGradient id="paint0_linear_1_112" x1="310.742" y1="665" x2="1170.74" y2="289" gradientUnits="userSpaceOnUse">
<stop stop-color="#5E010D"/>
<stop offset="1" stop-color="#EA0622"/>
</linearGradient>
</defs>
</svg>
