<svg width="125" height="156" viewBox="0 0 125 156" fill="none" xmlns="http://www.w3.org/2000/svg">
<rect y="42" width="70" height="70" rx="35" fill="#C80019"/>
<path d="M18.8 46.7488C29.788 58.2142 30.9716 67.4502 30.19 70.6351L59 72C58.2183 54.7109 56.5 24 49.62 21.1564C47 24.5 40.91 30.0284 36.555 32.7583C42.719 28.3905 50.29 10.5782 43.925 7.50711C44.26 11.2607 33.205 28.3223 30.19 30.7109C34.21 21.0427 36.628 1.36493 31 0C30 8 28 16.5 22.82 33.782C21 31.5 20.475 13.5 20.475 7.50711C18 8 14.78 19.4502 18.8 46.7488Z" fill="black"/>
<path d="M53.6666 119.667L45.6666 111.667C45.4999 115 43.9999 118.833 41.9999 121.5C29 121 29 119.5 25.5 119C21.5 119 19.5 119.667 16.5 122.5C20 122 20 120.5 23 121C20 122 17.6667 123.667 17.5 126.5C19.6667 124.667 23 123 27.6666 123.333C27 124.5 27 125.167 26.5 128.5C28 126 29.8333 123.5 30.9999 123.333C32.1666 123.167 45.9999 125.5 46.9999 125.333C47.9999 125.167 51.8888 120.667 53.6666 119.667Z" fill="black"/>
<path d="M55 133.071C55.6415 131.357 55 121.5 55 121.5L62.6978 126.643L59.2766 133.071C56.4255 134.786 47.4661 139.714 45.7554 142.714C47.6786 142.714 47.6786 142.714 50.2445 144C45.1127 144 44.0435 143.786 42.5467 145.286C41.4774 146.357 41.2688 147.821 40.6455 152.194L40.6223 152.357C39.3393 149.786 39.9808 149.143 39.9808 147.214C38.0563 148.5 36.7734 148.5 33.5659 153C33.5659 147.857 37.415 147 37.4148 145.929C35.4905 145.714 34.2074 145.929 31 149.786C32.283 144.643 36.7735 142.714 40.6223 142.714C41.4338 141.901 49.2262 137 55 133.071Z" fill="black"/>
<path d="M61.9385 64.9417C59.9998 68.2579 53.0526 70.1232 45.6667 69.7778C47.6286 74.9593 54.1902 93.0644 67 105.5C105.429 92.0281 115 62.5 111.447 58.3784C107 59 94.5 59.5 98.6368 57.3421C101.96 56.7894 112.5 54.5 116.64 51.8152C119 46.5 120.5 36.5 117.678 31.0891C115 32.5 96.2133 38.6887 97.5982 37.6524C98.983 36.6161 128 21.5 123.564 13.8174C119.132 16.8572 100.693 28.2105 95.5 31.0891C103.694 22.3381 123.564 9.5 114.216 0C110 13.8174 89.6353 30.0528 92.7512 26.253C95.2439 23.2132 108.5 4.5 103.5 2.5C94.785 15.948 89.2626 23.2946 83.4708 30.9996L83.4036 31.0891C76.1332 40.7613 64.362 60.7965 61.9385 64.9417Z" fill="black"/>
<path d="M36.9999 104C31.1333 96 30.3333 86 30.6666 82L27.6666 81C25.2666 80.2 20.4444 83.3333 18.3333 85C18.9999 83.6667 20.7999 80.3333 22.6666 77.6667C20 78 17 79 13.3333 81C14.9999 78.5 19.5 74 21.6666 70.6667C23.854 67.3012 34.9999 65 42.3333 67.6667C48.1999 69.8 61.4444 93.6667 67.3333 105.333C65.9999 108 69.3333 119.667 71.3333 124.333C71.6666 129 86.5 150.5 78.9999 155.333C74.5 147 69.5 146 66.5 147.5C63 144 66 141 66 140C66 139 66.5 137 61.3333 131C56.5333 130.2 43.111 112.667 36.9999 104Z" fill="black"/>
</svg>
