<svg width="402" height="402" viewBox="0 0 402 402" fill="none" xmlns="http://www.w3.org/2000/svg">
<path fill-rule="evenodd" clip-rule="evenodd" d="M10 201C10 305.934 96.0659 392 201 392C305.934 392 392 305.934 392 201C392 96.0659 305.934 10 201 10C96.0659 10 10 96.0659 10 201ZM201 0C90.5431 0 0 90.5431 0 201C0 311.457 90.5431 402 201 402C311.457 402 402 311.457 402 201C402 90.5431 311.457 0 201 0Z" fill="#f1f1f1"/>
<path d="M181 201C181 189.954 189.954 181 201 181C212.046 181 221 189.954 221 201C221 212.046 212.046 221 201 221C189.954 221 181 212.046 181 201Z" fill="#f1f1f1"/>
<path d="M401 201C290.543 201 201 290.543 201 401H211C211 296.066 296.066 211 401 211V201Z" fill="#f1f1f1"/>
<path d="M402 382V402H382C382 390.954 390.954 382 402 382Z" fill="#f1f1f1"/>
<path d="M201 401C201 290.543 111.457 201 1 201V211C105.934 211 191 296.066 191 401H201Z" fill="#f1f1f1"/>
<path d="M20 402H0V382C11.0457 382 20 390.954 20 402Z" fill="#f1f1f1"/>
<path d="M20 0H0V20C11.0457 20 20 11.0457 20 0Z" fill="#f1f1f1"/>
<path d="M1 191V201C111.457 201 201 111.457 201 1H191C191 105.934 105.934 191 1 191Z" fill="#f1f1f1"/>
<path d="M401 191C296.066 191 211 105.934 211 1H201C201 111.457 290.543 201 401 201V191Z" fill="#f1f1f1"/>
<path d="M402 20V0H382C382 11.0457 390.954 20 402 20Z" fill="#f1f1f1"/>
</svg>
