<svg width="80" height="80" viewBox="0 0 80 80" fill="none" xmlns="http://www.w3.org/2000/svg">
<rect x="1.5" y="1.5" width="77" height="77" rx="38.5" stroke="currentColor" stroke-width="3"/>
<path fillRule="evenodd" clipRule="evenodd" d="M54.5032 13.7797C54.5599 14.0674 54.5439 14.3637 54.5309 14.4848C54.4397 15.3324 54.2474 16.1576 54.0425 16.9034C53.7172 18.0878 53.2843 19.2201 52.7882 20.3052C50.8998 27.9669 48.9195 35.5942 46.6784 43.187C46.4831 43.8488 46.2862 44.5089 46.0897 45.1678C45.1389 48.3564 44.1968 51.5159 43.474 54.7032C43.5592 54.6849 43.6443 54.6666 43.7292 54.6484C43.8576 54.6209 43.9863 54.5932 44.1152 54.5656C48.5532 53.6128 53.29 52.5959 57.9969 52.3884C57.9969 52.3884 57.9984 52.3882 58.0004 52.388C58.0069 52.3874 58.0225 52.3859 58.0508 52.3827C58.0824 52.3791 58.1085 52.3759 58.1402 52.372C58.1652 52.3689 58.1938 52.3654 58.2316 52.3608C58.3565 52.3459 58.5853 52.319 58.8078 52.3212C58.9151 52.3224 59.1044 52.3299 59.3152 52.3847C59.4789 52.4272 59.9844 52.5798 60.3051 53.1121C60.6826 53.7388 60.5013 54.3483 60.3684 54.6268C60.2409 54.894 60.0637 55.0858 59.9572 55.1924C59.926 55.2235 59.8951 55.2544 59.8644 55.2852C60.5605 55.2502 61.2769 55.2217 62.0001 55.2217C62.8285 55.2217 63.5001 55.8933 63.5001 56.7217C63.5001 57.5501 62.8285 58.2217 62.0001 58.2217C61.1949 58.2217 60.3831 58.261 59.5361 58.3065C59.4441 58.3114 59.3515 58.3165 59.2585 58.3215C58.5072 58.3623 57.7255 58.4047 56.9419 58.4198C56.8125 58.4223 56.6173 58.4158 56.3995 58.3571C56.1813 58.2984 55.8336 58.1572 55.5557 57.8115C54.9458 57.0525 55.312 56.2351 55.3601 56.1277L55.3607 56.1263C55.4512 55.9242 55.5738 55.7534 55.6174 55.6926L55.6225 55.6855C55.6541 55.6414 55.6589 55.635 55.6629 55.6296C55.6665 55.6247 55.6695 55.6207 55.6912 55.5902C55.705 55.5709 55.7098 55.5636 55.7098 55.5636C52.4856 55.8883 49.2327 56.5417 45.9799 57.2344C46.0901 57.2502 46.2002 57.2669 46.3091 57.2846C46.8711 57.3757 47.5234 57.5092 48.0477 57.7181C48.2933 57.8159 48.6623 57.9874 48.9678 58.2918C49.3311 58.6538 49.6849 59.3174 49.4254 60.1145C49.2528 60.6448 48.972 61.11 48.7386 61.4627C48.6225 61.6382 48.5028 61.808 48.3996 61.9543L48.3896 61.9686C48.279 62.1255 48.1891 62.2534 48.1111 62.3727L48.104 62.3837C47.5709 63.1989 46.9821 64.0994 46.2901 64.9351C45.3316 66.0927 43.9439 67.4169 42.3815 68.1486C42.3815 68.1486 42.3806 68.149 42.3781 68.1503L42.3671 68.1557L42.327 68.176C42.2955 68.192 42.2436 68.2185 42.1883 68.2451C42.0865 68.2941 41.8993 68.3803 41.6752 68.4371C41.4635 68.4909 41.0585 68.5609 40.6017 68.4032C40.0754 68.2214 39.7325 67.8284 39.5558 67.4161C39.186 66.5535 39.1836 65.5061 39.1836 64.976C39.1836 63.2085 39.3087 61.4615 39.5257 59.7353C38.5209 59.6977 37.5142 59.6801 36.5067 59.6801C36.4328 59.6801 36.361 59.6802 36.2931 59.6804C36.15 59.6807 36.0248 59.681 35.9371 59.6796C35.8847 59.6788 35.7686 59.677 35.6535 59.6628L35.6505 59.6625C35.6197 59.659 35.4062 59.6351 35.1748 59.5268C35.0802 59.4825 34.6685 59.2859 34.4409 58.7859C34.1399 58.1247 34.3997 57.5418 34.5984 57.2715C34.7661 57.0433 34.9565 56.9216 35.0139 56.8854C35.0957 56.8339 35.1663 56.8002 35.2048 56.7828C35.2828 56.7473 35.3516 56.7236 35.3845 56.7124C35.4562 56.6883 35.5356 56.6654 35.5922 56.6493C35.6256 56.6398 35.6599 56.6301 35.6958 56.62C35.8034 56.5896 35.9245 56.5555 36.0747 56.5103C37.4551 56.0952 38.8571 55.74 40.2502 55.4162C41.0302 51.6327 42.142 47.9057 43.2215 44.2874C43.4165 43.6338 43.6104 42.9839 43.8011 42.3377C45.1051 37.9199 46.3213 33.486 47.4841 29.033C46.6746 30.1364 45.8277 31.2129 44.9437 32.2571C42.3276 35.3478 39.2526 37.9638 36.2822 40.4626C36.027 40.6773 35.7711 40.893 35.5145 41.1092C33.4473 42.8512 31.3325 44.6333 29.1372 46.2878C26.2944 48.4302 23.2235 50.239 20.2555 51.9832C19.9699 52.151 19.681 52.3221 19.3892 52.4949C17.8798 53.3888 16.2903 54.3301 14.6522 55.1208C13.9061 55.481 13.0094 55.1681 12.6493 54.4221C12.2891 53.676 12.602 52.7793 13.348 52.4192C14.8608 51.6889 16.3217 50.8242 17.8314 49.9306C18.1306 49.7535 18.4317 49.5753 18.7355 49.3967C21.725 47.6399 24.648 45.9145 27.3316 43.892C29.4573 42.29 31.5071 40.5629 33.5822 38.8143C33.838 38.5988 34.0942 38.3829 34.351 38.1669C37.3398 35.6526 40.225 33.1884 42.6539 30.3189C44.733 27.8627 46.6038 25.2093 48.2564 22.4352C48.8726 21.4007 49.4476 20.3633 49.9446 19.3065C50.0046 19.0628 50.0644 18.8191 50.1243 18.5754C50.2112 18.2211 50.2909 17.8422 50.3767 17.4286C50.3841 17.3925 50.3917 17.3562 50.3992 17.3196C50.4768 16.9448 50.5598 16.5438 50.6525 16.1443C50.8545 15.2737 51.1228 14.3135 51.5637 13.4319C51.6045 13.3501 51.6847 13.1998 51.8145 13.0481C51.8879 12.9624 52.2896 12.4947 53.0016 12.5C53.8388 12.5064 54.2354 13.125 54.3303 13.2978C54.4473 13.5108 54.4885 13.7054 54.5032 13.7797ZM42.5278 59.9098C42.3174 61.526 42.194 63.1441 42.1842 64.7672C42.8275 64.2808 43.4515 63.6594 43.9794 63.0219C44.5493 62.3335 45.0512 61.5706 45.6003 60.7309C45.7066 60.5683 45.821 60.4055 45.9226 60.2614C45.8919 60.2562 45.8608 60.2511 45.8292 60.246C45.0047 60.1123 44.1412 60.0446 43.6842 60.0088C43.5782 60.0005 43.4941 59.9939 43.4374 59.9885C43.1345 59.9602 42.8313 59.934 42.5278 59.9098Z" fill="currentColor"/>
</svg>
