<svg width="2900" height="2200" viewBox="0 0 2942 2279" fill="none" xmlns="http://www.w3.org/2000/svg">
<path d="M1485 174C523 174 225 612 225 882C225 1152 567 1604 1485 1604C2161 1604 2717 1270 2717 882C2717 494 2185 190 1485 174Z" fill="#4D6594"/>
<path d="M752.58 2100H689.977V1773.21H578.797V1720.22H863.5V1773.21H752.58V2100Z" fill="#4D6594"/>
<path d="M1284 1909.59C1284 1938.86 1280.28 1965.53 1272.83 1989.6C1265.56 2013.5 1254.56 2034.11 1239.84 2051.42C1225.12 2068.57 1206.68 2081.82 1184.51 2091.17C1162.34 2100.52 1136.37 2105.2 1106.58 2105.2C1076.27 2105.2 1049.95 2100.52 1027.61 2091.17C1005.44 2081.82 987.001 2068.48 972.281 2051.16C957.734 2033.85 946.824 2013.15 939.551 1989.08C932.277 1965.01 928.641 1938.34 928.641 1909.07C928.641 1869.93 935.048 1835.82 947.863 1806.72C960.852 1777.46 980.507 1754.77 1006.83 1738.67C1033.33 1722.39 1066.75 1714.25 1107.1 1714.25C1146.58 1714.25 1179.4 1722.3 1205.55 1738.41C1231.7 1754.51 1251.27 1777.2 1264.26 1806.46C1277.42 1835.56 1284 1869.93 1284 1909.59ZM994.102 1909.59C994.102 1938.86 998.085 1964.23 1006.05 1985.7C1014.02 2007 1026.23 2023.46 1042.68 2035.06C1059.3 2046.49 1080.6 2052.2 1106.58 2052.2C1132.73 2052.2 1154.03 2046.49 1170.48 2035.06C1186.93 2023.46 1199.06 2007 1206.85 1985.7C1214.64 1964.23 1218.54 1938.86 1218.54 1909.59C1218.54 1865.09 1209.62 1830.28 1191.78 1805.17C1174.12 1779.88 1145.89 1767.24 1107.1 1767.24C1081.12 1767.24 1059.74 1772.96 1042.94 1784.38C1026.31 1795.81 1014.02 1812.18 1006.05 1833.48C998.085 1854.61 994.102 1879.98 994.102 1909.59Z" fill="#4D6594"/>
<path d="M1692.2 1909.59C1692.2 1938.86 1688.48 1965.53 1681.03 1989.6C1673.76 2013.5 1662.76 2034.11 1648.04 2051.42C1633.32 2068.57 1614.88 2081.82 1592.71 2091.17C1570.54 2100.52 1544.57 2105.2 1514.78 2105.2C1484.48 2105.2 1458.15 2100.52 1435.81 2091.17C1413.65 2081.82 1395.2 2068.48 1380.48 2051.16C1365.94 2033.85 1355.03 2013.15 1347.75 1989.08C1340.48 1965.01 1336.84 1938.34 1336.84 1909.07C1336.84 1869.93 1343.25 1835.82 1356.06 1806.72C1369.05 1777.46 1388.71 1754.77 1415.03 1738.67C1441.53 1722.39 1474.95 1714.25 1515.3 1714.25C1554.79 1714.25 1587.6 1722.3 1613.75 1738.41C1639.9 1754.51 1659.47 1777.2 1672.46 1806.46C1685.62 1835.56 1692.2 1869.93 1692.2 1909.59ZM1402.3 1909.59C1402.3 1938.86 1406.29 1964.23 1414.25 1985.7C1422.22 2007 1434.43 2023.46 1450.88 2035.06C1467.5 2046.49 1488.81 2052.2 1514.78 2052.2C1540.93 2052.2 1562.23 2046.49 1578.68 2035.06C1595.14 2023.46 1607.26 2007 1615.05 1985.7C1622.84 1964.23 1626.74 1938.86 1626.74 1909.59C1626.74 1865.09 1617.82 1830.28 1599.98 1805.17C1582.32 1779.88 1554.09 1767.24 1515.3 1767.24C1489.32 1767.24 1467.94 1772.96 1451.14 1784.38C1434.51 1795.81 1422.22 1812.18 1414.25 1833.48C1406.29 1854.61 1402.3 1879.98 1402.3 1909.59Z" fill="#4D6594"/>
<path d="M1761 2100V1720.22H1823.34V2047.01H1984.66V2100H1761Z" fill="#4D6594"/>
<path d="M2333 1996.61C2333 2019.13 2327.46 2038.52 2316.38 2054.8C2305.46 2071.08 2289.71 2083.55 2269.1 2092.21C2248.66 2100.87 2224.24 2105.2 2195.84 2105.2C2181.99 2105.2 2168.74 2104.42 2156.1 2102.86C2143.46 2101.3 2131.51 2099.05 2120.25 2096.1C2109.17 2092.99 2099.04 2089.26 2089.86 2084.93V2026.23C2105.27 2032.98 2122.5 2039.13 2141.55 2044.67C2160.6 2050.04 2180 2052.72 2199.74 2052.72C2215.85 2052.72 2229.18 2050.64 2239.74 2046.49C2250.48 2042.16 2258.45 2036.1 2263.64 2028.3C2268.84 2020.34 2271.44 2011.07 2271.44 2000.51C2271.44 1989.25 2268.4 1979.73 2262.34 1971.94C2256.28 1964.14 2247.1 1957.04 2234.81 1950.63C2222.69 1944.05 2207.45 1937.04 2189.09 1929.59C2176.62 1924.57 2164.67 1918.86 2153.24 1912.45C2141.99 1906.04 2131.94 1898.51 2123.11 1889.85C2114.28 1881.19 2107.26 1870.97 2102.07 1859.2C2097.05 1847.25 2094.54 1833.22 2094.54 1817.12C2094.54 1795.64 2099.64 1777.28 2109.86 1762.04C2120.25 1746.81 2134.8 1735.12 2153.5 1726.98C2172.38 1718.84 2194.37 1714.77 2219.48 1714.77C2239.4 1714.77 2258.1 1716.85 2275.59 1721C2293.26 1725.16 2310.57 1731.05 2327.54 1738.67L2307.8 1788.8C2292.22 1782.39 2277.06 1777.28 2262.34 1773.47C2247.8 1769.66 2232.9 1767.76 2217.66 1767.76C2204.5 1767.76 2193.33 1769.75 2184.15 1773.73C2174.98 1777.72 2167.96 1783.35 2163.11 1790.62C2158.44 1797.72 2156.1 1806.21 2156.1 1816.08C2156.1 1827.16 2158.78 1836.51 2164.15 1844.13C2169.69 1851.58 2178.18 1858.42 2189.61 1864.65C2201.21 1870.89 2216.11 1877.81 2234.29 1885.43C2255.24 1894.09 2272.99 1903.18 2287.54 1912.71C2302.26 1922.23 2313.52 1933.66 2321.31 1947C2329.1 1960.16 2333 1976.7 2333 1996.61Z" fill="#4D6594"/>
<path d="M860.163 1200.47L709.944 711.297H706.104C711.509 810.809 714.212 877.198 714.212 910.464V1200.47H596V576.956H776.092L923.75 1053.76H926.311L1082.93 576.956H1263.02V1200.47H1139.69V905.346C1139.69 891.414 1139.83 875.35 1140.12 857.154C1140.69 838.957 1142.68 790.623 1146.09 712.15H1142.25L981.362 1200.47H860.163Z" fill="white"/>
<path d="M1647 1200.47H1514.71V686.988H1345.28V576.956H1816.42V686.988H1647V1200.47Z" fill="white"/>
<path d="M2163.35 678.032C2113.56 678.032 2075.01 696.797 2047.7 734.327C2020.38 771.573 2006.73 823.604 2006.73 890.419C2006.73 1029.45 2058.93 1098.97 2163.35 1098.97C2207.16 1098.97 2260.22 1088.02 2322.53 1066.13V1177.01C2271.32 1198.34 2214.13 1209 2150.97 1209C2060.21 1209 1990.8 1181.56 1942.71 1126.69C1894.63 1071.53 1870.59 992.49 1870.59 889.566C1870.59 824.741 1882.4 768.019 1906.01 719.401C1929.63 670.497 1963.48 633.109 2007.58 607.236C2051.96 581.079 2103.89 568 2163.35 568C2223.95 568 2284.83 582.642 2346 611.927L2303.32 719.401C2279.99 708.312 2256.52 698.645 2232.91 690.4C2209.3 682.155 2186.11 678.032 2163.35 678.032Z" fill="white"/>
</svg>
